<?xml version="1.0" encoding="iso-8859-1"?>
<!-- Uploaded to: SVG Repo, www.svgrepo.com, Generator: SVG Repo Mixer Tools -->
<svg fill="#000000" version="1.1" id="Layer_1" xmlns="http://www.w3.org/2000/svg" xmlns:xlink="http://www.w3.org/1999/xlink" 
	 viewBox="0 0 512 512" xml:space="preserve">
<g>
	<g>
		<path d="M73.83,512h364.34l-64.62-291.862v-34.15l10.558-79.184L361.623,0h-49.365l-1.037,6.626
			c-2.035,13.016-8.682,24.955-18.715,33.619c-10.132,8.749-23.099,13.568-36.507,13.568c-13.409,0-26.374-4.819-36.508-13.568
			c-10.033-8.663-16.68-20.602-18.715-33.619L199.74,0h-49.365L127.89,106.804l10.559,79.184v34.15L73.83,512z M418.646,496.327
			H93.353l3.586-16.196H415.06L418.646,496.327z M145.384,99.788l17.708-84.114h23.561c3.605,14.079,11.475,26.833,22.595,36.434
			c12.98,11.207,29.582,17.379,46.751,17.379s33.771-6.172,46.751-17.379c11.119-9.601,18.989-22.355,22.594-36.434h23.561
			l19.311,91.726l-9.363,70.233h-61.729c-9.21-11.063-24.206-18.286-41.123-18.286s-31.913,7.222-41.123,18.286h-61.729
			l-8.289-62.171h167.565V99.788H145.384z M305.353,193.306h52.524v19.853h-52.524c0.856-3.192,1.324-6.512,1.324-9.927
			S306.21,196.498,305.353,193.306z M291.004,203.233c0,15.556-15.703,28.212-35.004,28.212s-35.004-12.656-35.004-28.212
			s15.703-28.212,35.004-28.212S291.004,187.676,291.004,203.233z M206.646,213.159h-52.524v-19.853h52.524
			c-0.856,3.192-1.324,6.512-1.324,9.927S205.789,209.967,206.646,213.159z M152.576,228.833h62.3
			c9.21,11.063,24.206,18.286,41.123,18.286c16.917,0,31.913-7.222,41.123-18.286h62.3l52.168,235.625H100.409L152.576,228.833z"/>
	</g>
</g>
<g>
	<g>
		<rect x="328.097" y="99.788" width="15.673" height="15.673"/>
	</g>
</g>
</svg>